# xmcd CD database file
# Copyright (C) 1996 Ti Kan
#
# Track frame offsets:
#	225
#	23043
#	50905
#	70680
#	88557
#	113417
#	138025
#	169841
#	197535
#	232192
#	261661
#	288030
#	310318
# Disc length: 4325 seconds
#
# Revision: 1
# Processed by: cddbd v1.5PL3 Copyright (c) Steve Scherf et al.
# Submitted via: CDCOPY 4.744
#
DISCID=b310e20d
DTITLE=Vari - Innovative Communication Sampler
DYEAR=1900
DGENRE=
TTITLE0=Blue Knights - Missing you
TTITLE1=GENE - Death sea
TTITLE2=Interface - Weightless
TTITLE3=Dancing Fantasy - Miss you (radio mix)
TTITLE4=Eylin De Winter - You
TTITLE5=Marcel Thebach - Peyote song
TTITLE6=Biological events - Aliud
TTITLE7=Hesse e Drewes ft Ayse - Insalar
TTITLE8=Ultrabass - The faith of sheep
TTITLE9=Mind-Flux - Mr Johnson's trip to the moon
TTITLE10=Kowa - African moments
TTITLE11=Software - Erotic desire
TTITLE12=Egon Wwellenbrink - Fuhlen (Sentir)
EXTD=
EXTT0=
EXTT1=
EXTT2=
EXTT3=
EXTT4=
EXTT5=
EXTT6=
EXTT7=
EXTT8=
EXTT9=
EXTT10=
EXTT11=
EXTT12=
PLAYORDER=
